<svg width="395" height="6" viewBox="0 0 395 6" fill="none" xmlns="http://www.w3.org/2000/svg">
<path d="M2.5 6L0.334937 2.25L4.66506 2.25L2.5 6Z" fill="white"/>
<path d="M82.5 6L80.3349 2.25L84.6651 2.25L82.5 6Z" fill="white"/>
<path d="M142.5 6L140.335 2.25L144.665 2.25L142.5 6Z" fill="white"/>
<path d="M172.5 6L170.335 2.25L174.665 2.25L172.5 6Z" fill="white"/>
<path d="M192.5 6L190.335 2.25L194.665 2.25L192.5 6Z" fill="white"/>
<path d="M212.5 6L210.335 2.25L214.665 2.25L212.5 6Z" fill="white"/>
<path d="M42.5 6L40.3349 2.25L44.6651 2.25L42.5 6Z" fill="white"/>
<path d="M22.5 6L20.3349 2.25L24.6651 2.25L22.5 6Z" fill="white"/>
<path d="M102.5 6L100.335 2.25L104.665 2.25L102.5 6Z" fill="white"/>
<path d="M122.5 6L120.335 2.25L124.665 2.25L122.5 6Z" fill="white"/>
<path d="M152.5 6L150.335 2.25L154.665 2.25L152.5 6Z" fill="white"/>
<path d="M62.5 6L60.3349 2.25L64.6651 2.25L62.5 6Z" fill="white"/>
<path d="M12.5 -2.18557e-07L10.3349 3.75L14.6651 3.75L12.5 -2.18557e-07Z" fill="white"/>
<path d="M92.5 -2.18557e-07L90.3349 3.75L94.6651 3.75L92.5 -2.18557e-07Z" fill="white"/>
<path d="M52.5 -2.18557e-07L50.3349 3.75L54.6651 3.75L52.5 -2.18557e-07Z" fill="white"/>
<path d="M32.5 -2.18557e-07L30.3349 3.75L34.6651 3.75L32.5 -2.18557e-07Z" fill="white"/>
<path d="M112.5 -2.18557e-07L110.335 3.75L114.665 3.75L112.5 -2.18557e-07Z" fill="white"/>
<path d="M72.5 -2.18557e-07L70.3349 3.75L74.6651 3.75L72.5 -2.18557e-07Z" fill="white"/>
<path d="M132.5 -2.18557e-07L130.335 3.75L134.665 3.75L132.5 -2.18557e-07Z" fill="white"/>
<path d="M162.5 -2.18557e-07L160.335 3.75L164.665 3.75L162.5 -2.18557e-07Z" fill="white"/>
<path d="M182.5 -2.18557e-07L180.335 3.75L184.665 3.75L182.5 -2.18557e-07Z" fill="white"/>
<path d="M202.5 -2.18557e-07L200.335 3.75L204.665 3.75L202.5 -2.18557e-07Z" fill="white"/>
<path d="M222.5 6L220.335 2.25L224.665 2.25L222.5 6Z" fill="white"/>
<path d="M302.5 6L300.335 2.25L304.665 2.25L302.5 6Z" fill="white"/>
<path d="M362.5 6L360.335 2.25L364.665 2.25L362.5 6Z" fill="white"/>
<path d="M392.5 6L390.335 2.25L394.665 2.25L392.5 6Z" fill="white"/>
<path d="M262.5 6L260.335 2.25L264.665 2.25L262.5 6Z" fill="white"/>
<path d="M242.5 6L240.335 2.25L244.665 2.25L242.5 6Z" fill="white"/>
<path d="M322.5 6L320.335 2.25L324.665 2.25L322.5 6Z" fill="white"/>
<path d="M342.5 6L340.335 2.25L344.665 2.25L342.5 6Z" fill="white"/>
<path d="M372.5 6L370.335 2.25L374.665 2.25L372.5 6Z" fill="white"/>
<path d="M282.5 6L280.335 2.25L284.665 2.25L282.5 6Z" fill="white"/>
<path d="M232.5 -2.18557e-07L230.335 3.75L234.665 3.75L232.5 -2.18557e-07Z" fill="white"/>
<path d="M312.5 -2.18557e-07L310.335 3.75L314.665 3.75L312.5 -2.18557e-07Z" fill="white"/>
<path d="M272.5 -2.18557e-07L270.335 3.75L274.665 3.75L272.5 -2.18557e-07Z" fill="white"/>
<path d="M252.5 -2.18557e-07L250.335 3.75L254.665 3.75L252.5 -2.18557e-07Z" fill="white"/>
<path d="M332.5 -2.18557e-07L330.335 3.75L334.665 3.75L332.5 -2.18557e-07Z" fill="white"/>
<path d="M292.5 -2.18557e-07L290.335 3.75L294.665 3.75L292.5 -2.18557e-07Z" fill="white"/>
<path d="M352.5 -2.18557e-07L350.335 3.75L354.665 3.75L352.5 -2.18557e-07Z" fill="white"/>
<path d="M382.5 -2.18557e-07L380.335 3.75L384.665 3.75L382.5 -2.18557e-07Z" fill="white"/>
</svg>
