<svg width="765" height="6" viewBox="0 0 765 6" fill="none" xmlns="http://www.w3.org/2000/svg">
<path d="M2.5 6L0.334937 2.25L4.66506 2.25L2.5 6Z" fill="white"/>
<path d="M82.5 6L80.3349 2.25L84.6651 2.25L82.5 6Z" fill="white"/>
<path d="M142.5 6L140.335 2.25L144.665 2.25L142.5 6Z" fill="white"/>
<path d="M172.5 6L170.335 2.25L174.665 2.25L172.5 6Z" fill="white"/>
<path d="M192.5 6L190.335 2.25L194.665 2.25L192.5 6Z" fill="white"/>
<path d="M212.5 6L210.335 2.25L214.665 2.25L212.5 6Z" fill="white"/>
<path d="M42.5 6L40.3349 2.25L44.6651 2.25L42.5 6Z" fill="white"/>
<path d="M22.5 6L20.3349 2.25L24.6651 2.25L22.5 6Z" fill="white"/>
<path d="M102.5 6L100.335 2.25L104.665 2.25L102.5 6Z" fill="white"/>
<path d="M122.5 6L120.335 2.25L124.665 2.25L122.5 6Z" fill="white"/>
<path d="M152.5 6L150.335 2.25L154.665 2.25L152.5 6Z" fill="white"/>
<path d="M62.5 6L60.3349 2.25L64.6651 2.25L62.5 6Z" fill="white"/>
<path d="M12.5 -2.18557e-07L10.3349 3.75L14.6651 3.75L12.5 -2.18557e-07Z" fill="white"/>
<path d="M92.5 -2.18557e-07L90.3349 3.75L94.6651 3.75L92.5 -2.18557e-07Z" fill="white"/>
<path d="M52.5 -2.18557e-07L50.3349 3.75L54.6651 3.75L52.5 -2.18557e-07Z" fill="white"/>
<path d="M32.5 -2.18557e-07L30.3349 3.75L34.6651 3.75L32.5 -2.18557e-07Z" fill="white"/>
<path d="M112.5 -2.18557e-07L110.335 3.75L114.665 3.75L112.5 -2.18557e-07Z" fill="white"/>
<path d="M72.5 -2.18557e-07L70.3349 3.75L74.6651 3.75L72.5 -2.18557e-07Z" fill="white"/>
<path d="M132.5 -2.18557e-07L130.335 3.75L134.665 3.75L132.5 -2.18557e-07Z" fill="white"/>
<path d="M162.5 -2.18557e-07L160.335 3.75L164.665 3.75L162.5 -2.18557e-07Z" fill="white"/>
<path d="M182.5 -2.18557e-07L180.335 3.75L184.665 3.75L182.5 -2.18557e-07Z" fill="white"/>
<path d="M202.5 -2.18557e-07L200.335 3.75L204.665 3.75L202.5 -2.18557e-07Z" fill="white"/>
<path d="M222.5 6L220.335 2.25L224.665 2.25L222.5 6Z" fill="white"/>
<path d="M302.5 6L300.335 2.25L304.665 2.25L302.5 6Z" fill="white"/>
<path d="M362.5 6L360.335 2.25L364.665 2.25L362.5 6Z" fill="white"/>
<path d="M392.5 6L390.335 2.25L394.665 2.25L392.5 6Z" fill="white"/>
<path d="M412.5 6L410.335 2.25L414.665 2.25L412.5 6Z" fill="white"/>
<path d="M432.5 6L430.335 2.25L434.665 2.25L432.5 6Z" fill="white"/>
<path d="M262.5 6L260.335 2.25L264.665 2.25L262.5 6Z" fill="white"/>
<path d="M242.5 6L240.335 2.25L244.665 2.25L242.5 6Z" fill="white"/>
<path d="M322.5 6L320.335 2.25L324.665 2.25L322.5 6Z" fill="white"/>
<path d="M342.5 6L340.335 2.25L344.665 2.25L342.5 6Z" fill="white"/>
<path d="M372.5 6L370.335 2.25L374.665 2.25L372.5 6Z" fill="white"/>
<path d="M282.5 6L280.335 2.25L284.665 2.25L282.5 6Z" fill="white"/>
<path d="M232.5 -2.18557e-07L230.335 3.75L234.665 3.75L232.5 -2.18557e-07Z" fill="white"/>
<path d="M312.5 -2.18557e-07L310.335 3.75L314.665 3.75L312.5 -2.18557e-07Z" fill="white"/>
<path d="M272.5 -2.18557e-07L270.335 3.75L274.665 3.75L272.5 -2.18557e-07Z" fill="white"/>
<path d="M252.5 -2.18557e-07L250.335 3.75L254.665 3.75L252.5 -2.18557e-07Z" fill="white"/>
<path d="M332.5 -2.18557e-07L330.335 3.75L334.665 3.75L332.5 -2.18557e-07Z" fill="white"/>
<path d="M292.5 -2.18557e-07L290.335 3.75L294.665 3.75L292.5 -2.18557e-07Z" fill="white"/>
<path d="M352.5 -2.18557e-07L350.335 3.75L354.665 3.75L352.5 -2.18557e-07Z" fill="white"/>
<path d="M382.5 -2.18557e-07L380.335 3.75L384.665 3.75L382.5 -2.18557e-07Z" fill="white"/>
<path d="M402.5 -2.18557e-07L400.335 3.75L404.665 3.75L402.5 -2.18557e-07Z" fill="white"/>
<path d="M422.5 -2.18557e-07L420.335 3.75L424.665 3.75L422.5 -2.18557e-07Z" fill="white"/>
<path d="M552.5 6L550.335 2.25L554.665 2.25L552.5 6Z" fill="white"/>
<path d="M632.5 6L630.335 2.25L634.665 2.25L632.5 6Z" fill="white"/>
<path d="M692.5 6L690.335 2.25L694.665 2.25L692.5 6Z" fill="white"/>
<path d="M722.5 6L720.335 2.25L724.665 2.25L722.5 6Z" fill="white"/>
<path d="M742.5 6L740.335 2.25L744.665 2.25L742.5 6Z" fill="white"/>
<path d="M762.5 6L760.335 2.25L764.665 2.25L762.5 6Z" fill="white"/>
<path d="M592.5 6L590.335 2.25L594.665 2.25L592.5 6Z" fill="white"/>
<path d="M572.5 6L570.335 2.25L574.665 2.25L572.5 6Z" fill="white"/>
<path d="M652.5 6L650.335 2.25L654.665 2.25L652.5 6Z" fill="white"/>
<path d="M672.5 6L670.335 2.25L674.665 2.25L672.5 6Z" fill="white"/>
<path d="M702.5 6L700.335 2.25L704.665 2.25L702.5 6Z" fill="white"/>
<path d="M612.5 6L610.335 2.25L614.665 2.25L612.5 6Z" fill="white"/>
<path d="M562.5 -2.18557e-07L560.335 3.75L564.665 3.75L562.5 -2.18557e-07Z" fill="white"/>
<path d="M642.5 -2.18557e-07L640.335 3.75L644.665 3.75L642.5 -2.18557e-07Z" fill="white"/>
<path d="M602.5 -2.18557e-07L600.335 3.75L604.665 3.75L602.5 -2.18557e-07Z" fill="white"/>
<path d="M582.5 -2.18557e-07L580.335 3.75L584.665 3.75L582.5 -2.18557e-07Z" fill="white"/>
<path d="M662.5 -2.18557e-07L660.335 3.75L664.665 3.75L662.5 -2.18557e-07Z" fill="white"/>
<path d="M622.5 -2.18557e-07L620.335 3.75L624.665 3.75L622.5 -2.18557e-07Z" fill="white"/>
<path d="M682.5 -2.18557e-07L680.335 3.75L684.665 3.75L682.5 -2.18557e-07Z" fill="white"/>
<path d="M712.5 -2.18557e-07L710.335 3.75L714.665 3.75L712.5 -2.18557e-07Z" fill="white"/>
<path d="M732.5 -2.18557e-07L730.335 3.75L734.665 3.75L732.5 -2.18557e-07Z" fill="white"/>
<path d="M752.5 -2.18557e-07L750.335 3.75L754.665 3.75L752.5 -2.18557e-07Z" fill="white"/>
<path d="M442.5 6L440.335 2.25L444.665 2.25L442.5 6Z" fill="white"/>
<path d="M522.5 6L520.335 2.25L524.665 2.25L522.5 6Z" fill="white"/>
<path d="M482.5 6L480.335 2.25L484.665 2.25L482.5 6Z" fill="white"/>
<path d="M462.5 6L460.335 2.25L464.665 2.25L462.5 6Z" fill="white"/>
<path d="M542.5 6L540.335 2.25L544.665 2.25L542.5 6Z" fill="white"/>
<path d="M502.5 6L500.335 2.25L504.665 2.25L502.5 6Z" fill="white"/>
<path d="M452.5 -2.18557e-07L450.335 3.75L454.665 3.75L452.5 -2.18557e-07Z" fill="white"/>
<path d="M532.5 -2.18557e-07L530.335 3.75L534.665 3.75L532.5 -2.18557e-07Z" fill="white"/>
<path d="M492.5 -2.18557e-07L490.335 3.75L494.665 3.75L492.5 -2.18557e-07Z" fill="white"/>
<path d="M472.5 -2.18557e-07L470.335 3.75L474.665 3.75L472.5 -2.18557e-07Z" fill="white"/>
<path d="M512.5 -2.18557e-07L510.335 3.75L514.665 3.75L512.5 -2.18557e-07Z" fill="white"/>
</svg>
