<svg width="335" height="6" viewBox="0 0 335 6" fill="none" xmlns="http://www.w3.org/2000/svg">
<path d="M2.5 6L0.334937 2.25L4.66506 2.25L2.5 6Z" fill="#007A59"/>
<path d="M82.5 6L80.3349 2.25L84.6651 2.25L82.5 6Z" fill="#007A59"/>
<path d="M142.5 6L140.335 2.25L144.665 2.25L142.5 6Z" fill="#ED9D08"/>
<path d="M202.5 6L200.335 2.25L204.665 2.25L202.5 6Z" fill="#007A59"/>
<path d="M262.5 6L260.335 2.25L264.665 2.25L262.5 6Z" fill="#ED9D08"/>
<path d="M42.5 6L40.3349 2.25L44.6651 2.25L42.5 6Z" fill="#007A59"/>
<path d="M22.5 6L20.3349 2.25L24.6651 2.25L22.5 6Z" fill="#ED9D08"/>
<path d="M102.5 6L100.335 2.25L104.665 2.25L102.5 6Z" fill="#ED9D08"/>
<path d="M162.5 6L160.335 2.25L164.665 2.25L162.5 6Z" fill="#007A59"/>
<path d="M222.5 6L220.335 2.25L224.665 2.25L222.5 6Z" fill="#ED9D08"/>
<path d="M282.5 6L280.335 2.25L284.665 2.25L282.5 6Z" fill="#007A59"/>
<path d="M312.5 6L310.335 2.25L314.665 2.25L312.5 6Z" fill="#007A59"/>
<path d="M122.5 6L120.335 2.25L124.665 2.25L122.5 6Z" fill="#007A59"/>
<path d="M182.5 6L180.335 2.25L184.665 2.25L182.5 6Z" fill="#ED9D08"/>
<path d="M242.5 6L240.335 2.25L244.665 2.25L242.5 6Z" fill="#007A59"/>
<path d="M302.5 6L300.335 2.25L304.665 2.25L302.5 6Z" fill="#ED9D08"/>
<path d="M332.5 6L330.335 2.25L334.665 2.25L332.5 6Z" fill="#ED9D08"/>
<path d="M62.5 6L60.3349 2.25L64.6651 2.25L62.5 6Z" fill="#ED9D08"/>
<path d="M12.5 -2.18557e-07L10.3349 3.75L14.6651 3.75L12.5 -2.18557e-07Z" fill="#FF4033"/>
<path d="M92.5 -2.18557e-07L90.3349 3.75L94.6651 3.75L92.5 -2.18557e-07Z" fill="#FF4033"/>
<path d="M152.45 -2.18557e-07L150.285 3.75L154.615 3.75L152.45 -2.18557e-07Z" fill="#9FC87E"/>
<path d="M212.5 -2.18557e-07L210.335 3.75L214.665 3.75L212.5 -2.18557e-07Z" fill="#FF4033"/>
<path d="M272.5 -2.18557e-07L270.335 3.75L274.665 3.75L272.5 -2.18557e-07Z" fill="#9FC87E"/>
<path d="M52.5 -2.18557e-07L50.3349 3.75L54.6651 3.75L52.5 -2.18557e-07Z" fill="#FF4033"/>
<path d="M32.45 -2.18557e-07L30.2849 3.75L34.615 3.75L32.45 -2.18557e-07Z" fill="#9FC87E"/>
<path d="M112.45 -2.18557e-07L110.285 3.75L114.615 3.75L112.45 -2.18557e-07Z" fill="#9FC87E"/>
<path d="M172.5 -2.18557e-07L170.335 3.75L174.665 3.75L172.5 -2.18557e-07Z" fill="#FF4033"/>
<path d="M232.5 -2.18557e-07L230.335 3.75L234.665 3.75L232.5 -2.18557e-07Z" fill="#9FC87E"/>
<path d="M292.5 -2.18557e-07L290.335 3.75L294.665 3.75L292.5 -2.18557e-07Z" fill="#FF4033"/>
<path d="M322.5 -2.18557e-07L320.335 3.75L324.665 3.75L322.5 -2.18557e-07Z" fill="#FF4033"/>
<path d="M72.45 -2.18557e-07L70.2849 3.75L74.615 3.75L72.45 -2.18557e-07Z" fill="#9FC87E"/>
<path d="M132.5 -2.18557e-07L130.335 3.75L134.665 3.75L132.5 -2.18557e-07Z" fill="#FF4033"/>
<path d="M192.45 -2.18557e-07L190.285 3.75L194.615 3.75L192.45 -2.18557e-07Z" fill="#9FC87E"/>
<path d="M252.5 -2.18557e-07L250.335 3.75L254.665 3.75L252.5 -2.18557e-07Z" fill="#FF4033"/>
</svg>
