<svg width="125" height="6" viewBox="0 0 125 6" fill="none" xmlns="http://www.w3.org/2000/svg">
<path d="M2.5 6L0.334937 2.25L4.66506 2.25L2.5 6Z" fill="#007A59"/>
<path d="M82.5 6L80.3349 2.25L84.6651 2.25L82.5 6Z" fill="#007A59"/>
<path d="M42.5 6L40.3349 2.25L44.6651 2.25L42.5 6Z" fill="#007A59"/>
<path d="M22.5 6L20.3349 2.25L24.6651 2.25L22.5 6Z" fill="#ED9D08"/>
<path d="M102.5 6L100.335 2.25L104.665 2.25L102.5 6Z" fill="#ED9D08"/>
<path d="M122.5 6L120.335 2.25L124.665 2.25L122.5 6Z" fill="#007A59"/>
<path d="M62.5 6L60.3349 2.25L64.6651 2.25L62.5 6Z" fill="#ED9D08"/>
<path d="M12.5 -2.18557e-07L10.3349 3.75L14.6651 3.75L12.5 -2.18557e-07Z" fill="#FF0000"/>
<path d="M92.5 -2.18557e-07L90.3349 3.75L94.6651 3.75L92.5 -2.18557e-07Z" fill="#FF0000"/>
<path d="M52.5 -2.18557e-07L50.3349 3.75L54.6651 3.75L52.5 -2.18557e-07Z" fill="#FF0000"/>
<path d="M32.5 -2.18557e-07L30.3349 3.75L34.6651 3.75L32.5 -2.18557e-07Z" fill="#75B900"/>
<path d="M112.5 -2.18557e-07L110.335 3.75L114.665 3.75L112.5 -2.18557e-07Z" fill="#75B900"/>
<path d="M72.5 -2.18557e-07L70.3349 3.75L74.6651 3.75L72.5 -2.18557e-07Z" fill="#75B900"/>
</svg>
