<svg width="491" height="558" viewBox="0 0 491 558" fill="none" xmlns="http://www.w3.org/2000/svg">
<path fill-rule="evenodd" clip-rule="evenodd" d="M75.0982 110.818C93.5198 73.3377 116.229 34.0056 153.68 15.5278C191.473 -3.11843 239.28 -5.03718 279.185 10.126C318.359 25.0114 337.443 68.5547 368.311 97.0831C393.806 120.646 425.376 136.518 446.078 164.37C467.573 193.289 487.771 225.605 490.359 261.283C492.924 296.646 473.487 328.616 460.363 361.274C447.756 392.646 431.504 421.037 414.452 450.172C393.114 486.629 387.184 542.735 346.759 555.372C305.909 568.143 266.777 526.621 227.374 508.656C197.248 494.921 168.873 479.921 141.201 461.652C113.938 443.654 87.687 425.382 65.2392 401.616C39.5889 374.46 2.11499 349.241 0.0711189 312.237C-2.00478 274.654 41.9523 251.33 55.0029 216.294C67.6231 182.413 59.1695 143.226 75.0982 110.818Z" fill="#007A59"/>
</svg>
