<svg width="162" height="45" viewBox="0 0 162 45" fill="none" xmlns="http://www.w3.org/2000/svg">
<path d="M20.0041 7.25246C20.0041 7.25246 20.2252 6.2456 17.1239 6.27847C14.1272 6.30834 5.73179 8.05615 1.40558 17.6676C1.40558 17.6676 -1.8062 25.1518 1.48028 32.161C4.76676 39.1701 11.6773 43.2573 17.8201 44.303C33.885 47.0398 40.7507 34.0134 40.9867 26.7532C41.1899 20.5866 37.9751 14.7665 35.2742 12.4481C35.2742 12.4481 33.5922 10.6405 33.0753 11.3068C32.5793 11.9461 37.6495 18.9852 35.6119 21.0079C34.0971 22.5107 31.1871 18.4594 28.8566 18.8119C26.1677 19.2182 25.1429 25.6089 21.9521 24.9038C18.5401 24.148 20.9661 17.4525 19.9413 16.0722C18.6835 14.3781 12.9979 15.4836 12.2958 13.7597C10.8916 10.3208 20.1415 8.337 20.0041 7.24947V7.25246Z" fill="#FF4033"/>
<path d="M140.132 6.19242C140.73 6.66423 140.47 8.06707 140.272 8.818C140.076 9.57074 139.749 10.3685 140.225 10.6548C140.702 10.9412 141.277 10.644 142.334 8.24355C143.127 6.44273 144.112 7.0244 145.281 8.11209C145.735 8.53528 146.07 8.77659 146.289 8.86663C146.46 8.93686 146.676 8.92245 146.785 8.75498C147.222 8.09228 144.97 5.49191 144.952 4.73196C144.934 3.98823 145.712 3.36515 145.894 2.88613C146.068 2.42512 145.728 1.78043 143.612 2.61061C142.454 3.06441 141.971 1.80924 140.853 0.798989C140.053 0.0768635 139.655 -0.144636 139.351 0.0894693C138.943 0.402811 139.815 1.49951 140.065 2.07396C140.315 2.64842 140.75 3.46059 140.099 3.65688C139.08 3.96662 137.034 4.3772 136.349 4.87063C136.223 4.96067 136.132 5.09212 136.105 5.24519C136.072 5.42888 136.128 5.66838 136.581 5.75843C137.358 5.91149 138.889 5.78364 139.244 5.83406C139.598 5.88448 139.871 5.98713 140.13 6.19062L140.132 6.19242ZM142.99 5.34964C142.703 5.68459 142.267 5.67919 142.267 5.67919C141.814 5.71521 141.566 5.37845 141.536 5.33343C141.532 5.32983 141.53 5.32443 141.527 5.32083C141.254 4.95526 141.378 4.60951 141.378 4.60951C141.448 4.21873 141.886 3.98463 141.886 3.98463C142.239 3.81355 142.467 3.85857 142.467 3.85857C142.866 3.88738 143.039 4.13769 143.08 4.20973C143.121 4.28176 143.245 4.43303 143.244 4.78779C143.244 5.14255 142.99 5.34964 142.99 5.34964Z" fill="#FF4033"/>
<path d="M52.1129 17.339C52.2115 19.2511 53.5948 20.1116 55.3127 20.1116C56.8365 20.1116 57.8105 19.5051 57.8105 18.4713C57.8105 17.5332 57.0695 17.1836 55.7818 16.9297L53.4395 16.4994C51.5273 16.1469 50.2008 15.0952 50.2008 13.0636C50.2008 10.76 52.0173 9.27814 54.8855 9.27814C58.1063 9.27814 59.9198 10.9363 59.9616 13.6701L57.7179 13.7477C57.6402 12.0687 56.5467 11.1903 54.8676 11.1903C53.4245 11.1903 52.6029 11.8356 52.6029 12.8873C52.6029 13.7866 53.2482 14.0973 54.3597 14.3124L56.6243 14.7217C59.0444 15.1699 60.1767 16.3232 60.1767 18.313C60.1767 20.733 58.0883 22.0416 55.3157 22.0416C52.1547 22.0416 49.8691 20.4014 49.8691 17.4346L52.1129 17.336V17.339Z" fill="#007A59"/>
<path d="M67.8551 13.201H70.1975V21.8086H67.8551V20.4044C67.407 21.3993 66.3912 22.0446 65.0825 22.0446C62.7999 22.0446 62.0172 20.5029 62.0172 18.5908V13.204H64.3595V18.1217C64.3595 19.4304 64.8465 20.2102 65.9998 20.2102C67.153 20.2102 67.8551 19.272 67.8551 17.808V13.201Z" fill="#FF4033"/>
<path d="M74.461 25.0114H72.1186V13.201H74.461V14.8592C74.8523 13.8045 75.8861 12.965 77.4277 12.965C79.9643 12.965 81.3118 14.9757 81.3118 17.5123C81.3118 20.0488 79.9643 22.0416 77.4277 22.0416C75.8861 22.0416 74.8523 21.2021 74.461 20.1683V25.0084V25.0114ZM74.44 17.6736C74.44 19.2541 75.3782 20.2102 76.7047 20.2102C78.1896 20.2102 78.9485 19.1376 78.9485 17.5152C78.9485 15.8929 78.1866 14.8024 76.7047 14.8024C75.3782 14.8024 74.44 15.7794 74.44 17.339V17.6706V17.6736Z" fill="#007A59"/>
<path d="M91.0727 18.9404C90.6424 20.8914 89.1217 22.0446 86.9138 22.0446C84.2607 22.0446 82.3456 20.3476 82.3456 17.6348C82.3456 14.9219 84.2786 12.9709 86.854 12.9709C89.6655 12.9709 91.1085 14.9219 91.1085 17.2643V18.0052H84.6491C84.7268 19.4095 85.7217 20.2699 86.9915 20.2699C88.1417 20.2699 88.8468 19.762 89.1785 18.7462L91.0727 18.9404ZM88.8289 16.7743C88.7901 15.6629 88.1447 14.6859 86.8391 14.6859C85.5335 14.6859 84.8284 15.624 84.6909 16.7743H88.8289Z" fill="#FF4033"/>
<path d="M98.3925 15.5045C97.9444 15.2506 97.553 15.134 96.9883 15.134C95.7783 15.134 94.9597 15.9915 94.9597 17.5541V21.8086H92.6173V13.201H94.9597V14.8412C95.2734 13.8643 96.1697 12.968 97.3618 12.968C97.8876 12.968 98.3179 13.1054 98.5718 13.3205L98.3955 15.5075L98.3925 15.5045Z" fill="#007A59"/>
<path d="M50.144 44.767V32.2335H59.2805V34.3399H52.6746V37.7429H57.7806V39.8103H52.6746V44.767H50.1411H50.144Z" fill="#FF4033"/>
<path d="M88.8802 45C86.2271 45 84.3508 43.1446 84.3508 40.4706C84.3508 37.7966 86.2241 35.9233 88.8802 35.9233C91.5363 35.9233 93.4275 37.7966 93.4275 40.4706C93.4275 43.1446 91.5542 45 88.8802 45ZM88.8802 43.2223C90.3233 43.2223 91.0672 42.09 91.0672 40.4706C91.0672 38.8513 90.3262 37.698 88.8802 37.698C87.4341 37.698 86.7141 38.8304 86.7141 40.4706C86.7141 42.1109 87.4551 43.2223 88.8802 43.2223Z" fill="#007A59"/>
<path d="M123.027 45C120.374 45 118.498 43.1446 118.498 40.4706C118.498 37.7966 120.371 35.9233 123.027 35.9233C125.683 35.9233 127.575 37.7966 127.575 40.4706C127.575 43.1446 125.701 45 123.027 45ZM123.027 43.2223C124.47 43.2223 125.214 42.09 125.214 40.4706C125.214 38.8513 124.473 37.698 123.027 37.698C121.581 37.698 120.861 38.8304 120.861 40.4706C120.861 42.1109 121.602 43.2223 123.027 43.2223Z" fill="#9FC87E"/>
<path d="M159.496 43.1267C159.105 44.1604 158.053 45 156.529 45C153.972 45 152.645 43.0102 152.645 40.4706C152.645 37.9311 153.972 35.9233 156.529 35.9233C158.053 35.9233 159.105 36.7629 159.496 37.8175V32.4695H161.838V44.764H159.496V43.1237V43.1267ZM159.517 40.2973C159.517 38.7348 158.561 37.7608 157.234 37.7608C155.77 37.7608 155.008 38.8334 155.008 40.4736C155.008 42.1139 155.77 43.1685 157.234 43.1685C158.561 43.1685 159.517 42.2125 159.517 40.632V40.3003V40.2973Z" fill="#ED9D08"/>
<path d="M102.968 21.2542V8.95676H104.665V14.2271H111.731V8.95676H113.428V21.2542H111.731V15.6134H104.665V21.2542H102.968Z" fill="#007A59"/>
<path d="M119.52 21.4872C117.022 21.4872 115.188 19.6527 115.188 16.9967C115.188 14.3406 117.022 12.4882 119.52 12.4882C122.018 12.4882 123.891 14.3436 123.891 16.9967C123.891 19.6498 122.036 21.4872 119.52 21.4872ZM119.52 20.2383C121.256 20.2383 122.233 18.8909 122.233 16.9997C122.233 15.1084 121.256 13.761 119.52 13.761C117.784 13.761 116.846 15.0875 116.846 16.9997C116.846 18.9118 117.802 20.2383 119.52 20.2383Z" fill="#FF4033"/>
<path d="M127.192 8.95676V21.2542H125.573V8.95676H127.192Z" fill="#007A59"/>
<path d="M135.818 19.4765C135.427 20.5311 134.354 21.4872 132.753 21.4872C130.216 21.4872 128.848 19.5153 128.848 16.9967C128.848 14.478 130.213 12.4882 132.753 12.4882C134.354 12.4882 135.427 13.4652 135.818 14.5169V8.95377H137.437V21.2512H135.818V19.4765ZM135.839 16.7427C135.839 14.8874 134.668 13.7939 133.126 13.7939C131.447 13.7939 130.512 15.0427 130.512 16.9937C130.512 18.9447 131.45 20.1935 133.126 20.1935C134.668 20.1935 135.839 19.1 135.839 17.2267V16.7397V16.7427Z" fill="#FF4033"/>
<path d="M141.265 12.7242V21.2542H139.645V12.7242H141.265Z" fill="#007A59"/>
<path d="M145.092 21.2542H143.473V12.7243H145.092V14.248C145.501 13.2142 146.654 12.4912 147.921 12.4912C150.147 12.4912 151.043 13.9761 151.043 15.9659V21.2542H149.424V16.1004C149.424 14.6752 148.74 13.7789 147.395 13.7789C146.051 13.7789 145.092 14.7947 145.092 16.3543V21.2542Z" fill="#FF4033"/>
<path d="M156.568 18.2874C155.865 18.2874 155.241 18.1709 154.712 17.9348C154.419 18.1111 154.127 18.4039 154.127 18.7923C154.127 19.2614 154.398 19.5332 155.16 19.5332H158.498C160.353 19.5332 161.327 20.4893 161.327 21.8368C161.327 23.9252 158.964 24.7647 156.409 24.7647C154.106 24.7647 152.194 24.0417 152.194 22.4612C152.194 21.4842 152.896 20.8598 153.95 20.6447C153.171 20.4116 152.839 19.844 152.839 19.2016C152.839 18.4607 153.347 17.9318 154.109 17.6002C153.407 17.0923 152.997 16.3304 152.997 15.3953C152.997 13.5997 154.482 12.4882 156.571 12.4882C157.664 12.4882 158.599 12.8019 159.245 13.3666C159.693 12.6645 160.493 12.1954 161.411 12.1954V13.5997C160.846 13.5997 160.18 13.7371 159.752 13.9313C160.024 14.3406 160.183 14.8485 160.183 15.3953C160.183 17.17 158.68 18.2844 156.571 18.2844L156.568 18.2874ZM156.412 23.734C158.384 23.734 159.788 23.2858 159.788 22.016C159.788 21.2362 159.125 20.9434 158.13 20.9434H155.34C154.461 20.9434 153.699 21.2362 153.699 22.1744C153.699 23.2858 154.832 23.737 156.412 23.737V23.734ZM156.588 13.525C155.396 13.525 154.676 14.2271 154.676 15.3983C154.676 16.5694 155.399 17.2925 156.588 17.2925C157.778 17.2925 158.522 16.5904 158.522 15.3983C158.522 14.2062 157.798 13.525 156.588 13.525Z" fill="#007A59"/>
</svg>
